<svg id="visual" viewBox="0 0 900 600" width="900" height="600" xmlns="http://www.w3.org/2000/svg" xmlns:xlink="http://www.w3.org/1999/xlink" version="1.1"><rect x="0" y="0" width="900" height="600" fill="#ffb8d5"></rect><g transform="translate(502.0613822257984 309.2608498199237)"><path d="M135.4 -194.4C153.2 -173.4 130.1 -104.1 120.9 -57.1C111.6 -10.1 116.2 14.6 121.4 52.1C126.6 89.5 132.3 139.8 112.2 154.3C92.1 168.7 46 147.4 -4.2 153.2C-54.5 159 -108.9 191.9 -142.4 181.8C-175.8 171.7 -188.3 118.4 -207.8 65.8C-227.3 13.1 -253.9 -39 -243.9 -82.1C-233.9 -125.2 -187.2 -159.3 -140.4 -170.9C-93.7 -182.6 -46.8 -171.8 6 -180C58.8 -188.2 117.6 -215.5 135.4 -194.4" fill="none" stroke="#f80dff" stroke-width="6"></path></g></svg>