<svg id="visual" viewBox="0 0 900 600" width="900" height="600" xmlns="http://www.w3.org/2000/svg" xmlns:xlink="http://www.w3.org/1999/xlink" version="1.1"><rect x="0" y="0" width="900" height="600" fill="#ffb8d5"></rect><g transform="translate(453.5480853425221 294.6294137367854)"><path d="M83.3 -119C101.1 -101.7 104.1 -68.2 135.2 -30.2C166.4 7.7 225.9 50.2 237 95.9C248.2 141.6 211.1 190.5 163.5 195.8C116 201 58 162.5 0.1 162.4C-57.8 162.2 -115.6 200.4 -146.5 189.8C-177.4 179.2 -181.4 119.7 -199.6 64.7C-217.8 9.6 -250.1 -41.1 -245.7 -87.5C-241.2 -134 -200 -176.2 -152.9 -184.1C-105.8 -192 -52.9 -165.5 -10.1 -151.6C32.7 -137.7 65.4 -136.4 83.3 -119" fill="none" stroke="#f80dff" stroke-width="6"></path></g></svg>